<svg width="45" height="44" viewBox="0 0 45 44" fill="none" xmlns="http://www.w3.org/2000/svg">
<rect x="1" y="1" width="43" height="42" rx="21" stroke="white" stroke-width="2"/>
<path d="M29.5312 26.9688C30.1406 27.5312 30.1406 28.5156 29.5312 29.0781C29.25 29.3594 28.875 29.5 28.5 29.5C28.0781 29.5 27.7031 29.3594 27.4219 29.0781L22.5 24.1562L17.5312 29.0781C17.25 29.3594 16.875 29.5 16.5 29.5C16.0781 29.5 15.7031 29.3594 15.4219 29.0781C14.8125 28.5156 14.8125 27.5312 15.4219 26.9688L20.3438 22L15.4219 17.0781C14.8125 16.5156 14.8125 15.5312 15.4219 14.9688C15.9844 14.3594 16.9688 14.3594 17.5312 14.9688L22.5 19.8906L27.4219 14.9688C27.9844 14.3594 28.9688 14.3594 29.5312 14.9688C30.1406 15.5312 30.1406 16.5156 29.5312 17.0781L24.6094 22.0469L29.5312 26.9688Z" fill="white"/>
</svg>
