<svg width="13" height="15" viewBox="0 0 13 15" fill="none" xmlns="http://www.w3.org/2000/svg">
<path d="M3.69141 0.802246C3.82812 0.501465 4.12891 0.310059 4.45703 0.310059H7.76562C8.09375 0.310059 8.39453 0.501465 8.53125 0.802246L8.75 1.18506H11.375C11.8398 1.18506 12.25 1.59521 12.25 2.06006C12.25 2.55225 11.8398 2.93506 11.375 2.93506H0.875C0.382812 2.93506 0 2.55225 0 2.06006C0 1.59521 0.382812 1.18506 0.875 1.18506H3.5L3.69141 0.802246ZM10.7734 13.0796C10.7461 13.7905 10.1719 14.3101 9.46094 14.3101H2.76172C2.05078 14.3101 1.47656 13.7905 1.44922 13.0796L0.847656 3.81006H11.375L10.7734 13.0796Z" fill="#6C757D"/>
</svg>
